# xmcd CD database file
#
# Track frame offsets:
#	187
#	17400
#	39450
#	60300
#	82545
#	95625
#	119850
#	149337
#	173625
#
# Disc length: 2570 seconds
#
# Revision: 1
# Processed by: cddbd v1.5.2PL0 Copyright (c) Steve Scherf et al.
# Submitted via: CDex 1.70beta2
#
DISCID=690a0809
DTITLE=Hampton Hawes - The Trio - Vol.2
DYEAR=1956
DGENRE=Jazz
TTITLE0=You And The Night And The Music
TTITLE1=Stella By Starlight
TTITLE2=Blues For Jacque
TTITLE3=Yesterdays
TTITLE4=Steeplechase
TTITLE5='Round Midnight
TTITLE6=Just Squeeze Me
TTITLE7=Autumn In New York
TTITLE8=Section Blues
EXTD=YEAR: 1956
EXTT0=
EXTT1=
EXTT2=
EXTT3=
EXTT4=
EXTT5=
EXTT6=
EXTT7=
EXTT8=
PLAYORDER=
